<svg class="logo__vector" height="30" xmlns="http://www.w3.org/2000/svg" focusable="false" aria-labelledby="koombea-logo-id koombea-logo-desc" role="img"> <g fill="#333" fill-rule="evenodd" transform="translate(.536538 .666667)"> <path class="logo__symbol" d="m14.5423679 0c7.9330615 0 14.3887961 6.43 14.3887961 14.3343333 0 7.9025-6.4557346 14.3323334-14.3887961 14.3323334-7.93356348 0-14.38829425-6.4298334-14.38829425-14.3323334 0-7.9043333 6.45473077-14.3343333 14.38829425-14.3343333zm0 2.3035c-6.65985002 0-12.07576732 5.3965-12.07576732 12.0308333 0 6.633 5.4159173 12.0288334 12.07576732 12.0288334 6.6586788 0 12.0764365-5.3958334 12.0764365-12.0288334 0-6.6343333-5.4177577-12.0308333-12.0764365-12.0308333zm.0955829 1.28016667 2.4634384 2.48183333 3.4172596-.69466667.7383289 3.4295 3.2489481 1.27316667-1.220175 3.2855 2.0480134 2.8401667-2.7928673 2.1008333.1977577 3.5023333-3.4776577.2495-1.7155731 3.0545-3.0587192-1.6836666-3.08415 1.637-1.66872691-3.0801667-3.473475-.302.25112885-3.4988333-2.75990769-2.1428334 2.09084423-2.8088333-1.17065193-3.30366667 3.26735193-1.224.79153269-3.41766666 3.40605003.74616666zm-.0245943 3.241c4.1619462.03166666 7.5106097 3.41983333 7.4789885 7.56633333-.0316212 4.1453333-3.4314808 7.4808333-7.5935942 7.4491667-4.1631173-.0313334-7.51127888-3.418-7.47965772-7.5633334.03162115-4.1465 3.43114612-7.48349997 7.59426342-7.45216663zm-.070654 2.64555c-2.6929846 0-4.88187115 2.18250003-4.88187115 4.86350003 0 2.6815 2.18888655 4.8626666 4.88187115 4.8626666 2.6918135 0 4.8818712-2.1811666 4.8818712-4.8626666 0-2.681-2.1900577-4.86350003-4.8818712-4.86350003zm.0005019 1.79166663c1.7000135 0 3.0828116 1.3778334 3.0828116 3.0718334 0 1.6933333-1.3827981 3.071-3.0828116 3.071-1.7005154 0-3.0838154-1.3776667-3.0838154-3.071 0-1.694 1.3833-3.0718334 3.0838154-3.0718334z"></path> <path class="logo__text" d="m56.3990383 9.6377c2.4525634 0 4.4170904.7645 5.8962577 2.2908333 1.4818442 1.5483334 2.2216788 3.5583334 2.2216788 6.029 0 2.4663334-.7398346 4.4788334-2.2216788 6.0261667-1.4791673 1.5283333-3.4436943 2.2896667-5.8962577 2.2896667-2.4744808 0-4.4416846-.7613334-5.8989346-2.2896667-1.4806731-1.5256667-2.219002-3.5388333-2.219002-6.0261667 0-2.4916666.7383289-4.5011666 2.219002-6.029 1.45725-1.5263333 3.4244538-2.2908333 5.8989346-2.2908333zm-18.7953796-7.24886667c.4877019 0 .8122788.3745.8122788.825v12.45616667l6.3625442-5.8255c.2539731-.27066667.6699-.27783333.9288923-.00833333l.6444693.67450003c.1621211.1615.2733807.5415.1122634.8686666-.0232557.0408334-.087.1516667-.1448884.2115l-5.4247846 4.8235-.0172327.019 6.3908192 7.5316667c.2748865.321.3250788.6743333.1099211 1.0311667-.0510288.0946666-.1497403.1703333-.2360711.2436666l-.2158269.1826667-.7640943.6506667c-.3225692.2743333-.7910307.2813333-1.1289923-.0556667l-6.6170192-7.8658333v7.3168333c0 .4561667-.3699173.805-.8122788.805h-1.2441c-.43065 0-.8124462-.3355-.8124462-.8293333v-22.2981667c0-.36516667.3376269-.75716667.8124462-.75716667zm36.2806563 7.24886667c2.4520615 0 4.4175923.7645 5.8974288 2.2908333 1.481677 1.5483334 2.2200058 3.5583334 2.2200058 6.029 0 2.4663334-.7383288 4.4788334-2.2200058 6.0261667-1.4798365 1.5283333-3.4453673 2.2896667-5.8974288 2.2896667-2.4744808 0-4.4395096-.7613334-5.8984327-2.2896667-1.4806731-1.5256667-2.2200058-3.5388333-2.2200058-6.0261667 0-2.4916666.7393327-4.5011666 2.2200058-6.029 1.4589231-1.5263333 3.4239519-2.2908333 5.8984327-2.2908333zm59.065203-.00081667c2.287599 0 4.095525.78116667 5.426291 2.36749997 1.247781 1.4828334 1.871169 3.323 1.871169 5.5121667 0 .3968333-.125983.7311667-.383636 1.0006667-.251966.2718333-1.025931.4081666-1.025931.4081666h-10.397002c0 1.9648334 1.401034 4.5546667 4.626727 4.7458334 0 0 2.868323.265 4.377773-2.466 0 0 .079136-.1351667.195917-.2596667.194746-.2071667.572694-.4018333.916177-.3813333.950642.0515 1.753887-.1258334 1.397354 1.1208333 0 0-1.42931 4.5883333-7.019729 4.5883333-2.191396-.1201666-3.966698-.9035-5.225354-2.2111666-1.391498-1.4416667-2.087331-3.4841667-2.087331-6.1356667 0-2.2988333.582064-4.2113333 1.748031-5.7318333 1.307677-1.7115 3.166131-2.55783337 5.579544-2.55783337zm-41.6317507-.00132044.2524096.00503711c1.0168962.0535 2.0147193.24216667 3.1703135 1.1125.6051519.4555 1.0403192.9675 1.5151384 1.8411667.3167135-.5196667.7063731-1.132 1.5163097-1.7858334 1.1642942-.84266663 2.0573827-1.17149997 4.0028365-1.17149997 1.562988.06083334 3.01455.64166667 3.944613 1.92049997.808599 1.092 1.241089 2.4325 1.241089 4.0201667v9.8828333c0 .449-.350175.813-.793373.813h-1.288604c-.438179 0-.799062-.364-.799062-.813l.000402-9.0335615c.010825-.1819104.21087-4.1839385-3.143277-4.1839385-3.9932995 0-4.1964111 4.1903334-4.1964111 4.1903334v9.0271666c0 .449-.3553615.813-.7955481.813h-1.2702c-.4440346 0-.7993961-.364-.7993961-.813v-9.3263333c0-1.2973333-.3638942-3.8985-3.0921808-3.8985-3.7486961 0-4.2184961 3.6768333-4.2184961 4.1976667v9.0271666c0 .449-.3582058.813-.7967193.813h-1.3048327c-.4375096 0-.7958826-.364-.7958826-.813v-14.377c0-.4475.358373-.813.7958826-.813h1.3048327c.4385135 0 .7967193.3655.7967193.813v.8726667c1.2656827-1.6841667 3.0642404-2.388 5.0058461-2.3155zm57.0104067.00788711c2.32039 0 4.156759 1.12 4.896929 1.9518333 1.031619 1.136 1.547763 2.4905 1.547763 4.1911667v9.6555c0 .4593333-.36289.8315-.81529.8315h-1.193071c-.445875 0-.812112-.3721667-.812112-.8315v-1.293c-.648819.5568333-2.445704 2.1245-5.823311 2.1245-1.423287 0-2.516977-.451-3.468122-1.2885-.992636-.884-1.582563-2.0071667-1.582563-3.4368333 0-1.5521667.578383-2.7685 1.736486-3.655 1.256983-.9633334 3.0537-1.4443334 5.389149-1.4443334h3.232551c.479002 0 .498243-.5541666.485193-.6866666-.128158-1.9608334-1.617866-2.8711667-1.617866-2.8711667s-1.013215-.6776667-2.486025-.6776667c-1.187884 0-2.319553.2711667-2.95114.9483334-.616362.6606666-1.03714.6498333-2.324573.6498333-.786346 0-.737325-.7818333-.599464-1.0443333 1.546687-2.94700003 5.592222-3.11475523 6.284099-3.1216465l.101367.00014647zm-37.253383-6.05971667c.448217 0 .807092.36983334.807092.82416667v7.8351667c1.355694-1.6291667 3.163788-2.56783337 5.135844-2.56783337 1.978581 0 3.669058.72016667 5.072769 2.16249997 1.548935 1.5821667 2.325745 3.6343334 2.325745 6.1383334 0 2.5488333-.77681 4.6011666-2.325745 6.1685-1.422115 1.4213333-3.118782 2.1288333-5.087325 2.1288333-1.963188 0-3.681103-.6716667-5.121288-2.1253333v1.298c0 .4573333-.358875.8273333-.807092.8273333h-1.256983c-.443198 0-.804583-.3573333-.804583-.8145v-21.06216667c0-.45416666.361385-.813.804583-.813zm5.548592 8.83816667c-1.740669 0-4.7415 1.2063333-4.7415 5.5621667 0 5.2786666 3.699173 5.7165 4.7415 5.7165 2.322063 0 3.869492-1.066 4.643458-3.1981667.245105-.7096667.368077-1.523.368077-2.441 0-1.797-.4698-3.2076667-1.408229-4.2281667-.893089-.9398333-2.097202-1.4113333-3.603306-1.4113333zm-60.2243447-.1788667c1.3935057 0 2.5691769.4298334 3.5196519 1.2875 1.1422096 1.0426667 1.7112231 2.5105 1.7112231 4.3911667 0 1.9456667-.5690135 3.4378333-1.7112231 4.463-.5071096.4351667-1.07445.7633333-1.6963327.9718333-.6247269.2103334-1.2350654.3146667-1.8403846.3146667-.6029769 0-1.2151558-.1043333-1.8388789-.3146667-.6223846-.2085-1.1842038-.5381666-1.6804384-.9881666-.4975731-.4536667-.9053019-1.0405-1.2198404-1.777-.3198923-.7296667-.4790019-1.6165-.4790019-2.6548334 0-1.0311666.1591096-1.9155.4790019-2.6483333.8850577-2.029 2.472975-3.0451667 4.7562231-3.0451667zm17.4852767 0c-2.2829135 0-3.8689904 1.0161667-4.7573942 3.0451667-.3193904.7328333-.476325 1.6171667-.476325 2.6483333 0 1.0383334.1569346 1.9251667.476325 2.6548334.3178846.7365.7224346 1.3233333 1.2216807 1.7771666.4948962.4498334 1.05705.7795 1.6807731.988.6217154.2103334 1.2342289.3146667 1.8383769.3146667.6036462 0 1.2161597-.1043333 1.8390462-.3146667.6213808-.2085 1.1890558-.5366666 1.6954961-.9718333 1.141875-1.0251667 1.7123943-2.5173333 1.7123943-4.463 0-1.8806667-.5705193-3.3485-1.7123943-4.3911667-.9498057-.8576666-2.1251423-1.2875-3.5179788-1.2875zm77.679597 6.5457105-2.711396-.0001422c-1.342477 0-2.395009.1760151-3.149567.5195151-.753889.346-1.394677.8661666-1.423956 1.7593333-.05906 1.768 1.204448 2.6038333 3.211137 2.6038333.8874 0 1.880371-.4575 2.647978-.8988333.668227-.387 1.182197-.9076667 1.608999-1.5088333.188221-.2591667.191567-.5813334.194578-.6756667v-1.4325c0-.3751667-.388655-.3668484-.388655-.3668484zm-18.614394-6.5456938c-1.787013 0-3.132501.8436667-3.879363 2.3471667-.287267.5825-.499413 1.1163333-.599129 1.8428333h8.961c-.221348-1.447-.768277-2.4936667-1.597119-3.2566667-.781494-.7165-1.762587-.9333333-2.885389-.9333333z"></path> </g> </svg>
